# Blender 3.5.1
# www.blender.org
mtllib grass2.mtl
o T_grass_01_A_M.016
v 0.994960 -0.013431 -0.818405
v 1.671284 -0.013431 -0.371524
v 0.994960 0.797197 -0.818405
v 1.671284 0.797197 -0.371524
v -0.554355 -0.013649 0.123987
v 0.277542 -0.013649 -0.051337
v -0.554355 0.836523 0.123987
v 0.277542 0.836523 -0.051337
v -0.910014 -0.013846 -0.392562
v -0.704058 -0.013846 0.468960
v -0.910014 0.871952 -0.392562
v -0.704058 0.871952 0.468960
v 0.426201 -0.014823 -1.220499
v -0.629580 -0.014823 -1.098428
v 0.426201 1.047992 -1.220499
v -0.629580 1.047992 -1.098428
v -0.681930 -0.014080 1.248632
v 0.186390 -0.014080 0.920481
v -0.681930 0.914178 1.248633
v 0.186390 0.914178 0.920481
v -1.042693 -0.014670 -0.882359
v -0.216161 -0.014670 -0.259217
v -1.042693 1.020444 -0.882359
v -0.216161 1.020444 -0.259217
v -0.887287 -0.013499 0.306178
v -0.384629 -0.013499 0.957820
v -0.887287 0.809484 0.306179
v -0.384629 0.809484 0.957820
v 0.308527 -0.014013 -1.031454
v 0.954642 -0.014013 -0.382039
v 0.308527 0.902068 -1.031454
v 0.954642 0.902068 -0.382038
v 0.407439 -0.014476 -0.400295
v 0.157035 -0.014476 0.567846
v 0.407439 0.985524 -0.400296
v 0.157035 0.985524 0.567846
v 0.673553 -0.014054 0.048565
v 0.510760 -0.014054 0.957589
v 0.673553 0.909432 0.048565
v 0.510760 0.909432 0.957589
v 1.352546 -0.014054 -0.332392
v 0.855592 -0.014054 0.445980
v 1.352546 0.909432 -0.332392
v 0.855592 0.909432 0.445980
v -1.606017 -0.013649 0.132103
v -1.052374 -0.013649 -0.513088
v -1.606016 0.836522 0.132103
v -1.052373 0.836523 -0.513088
v 1.241757 -0.013649 0.322243
v 2.091599 -0.013649 0.298547
v 1.241757 0.836523 0.322243
v 2.091599 0.836523 0.298547
v -1.516594 -0.013649 0.208103
v -1.028387 -0.013649 0.904124
v -1.516594 0.836523 0.208103
v -1.028387 0.836523 0.904124
v 1.090741 -0.013649 1.416846
v 0.244481 -0.013649 1.498304
v 1.090741 0.836523 1.416846
v 0.244481 0.836523 1.498304
v 1.771289 -0.013649 0.574147
v 1.366855 -0.013649 1.321961
v 1.771289 0.836523 0.574147
v 1.366855 0.836523 1.321961
v 1.482501 -0.013649 0.540197
v 0.703012 -0.013649 0.879594
v 1.482501 0.836523 0.540198
v 0.703012 0.836523 0.879594
v 0.416462 -0.013649 -0.843385
v -0.363027 -0.013649 -0.503989
v 0.416461 0.836523 -0.843385
v -0.363027 0.836523 -0.503989
v 0.301498 -0.013649 0.807566
v -0.520244 -0.013649 0.589544
v 0.301498 0.836523 0.807566
v -0.520244 0.836523 0.589544
v 1.469605 -0.013649 -0.111042
v 0.647863 -0.013649 -0.329064
v 1.469604 0.836523 -0.111042
v 0.647863 0.836523 -0.329064
vn -0.5513 -0.0000 0.8343
vn 0.2062 -0.0000 0.9785
vn -0.9726 -0.0000 0.2325
vn -0.1149 -0.0000 -0.9934
vn 0.3535 -0.0000 0.9354
vn -0.6020 -0.0000 0.7985
vn -0.7918 -0.0000 0.6108
vn -0.7089 -0.0000 0.7053
vn -0.9681 -0.0000 -0.2504
vn -0.9843 -0.0000 -0.1763
vn -0.8429 -0.0000 -0.5381
vn 0.7589 -0.0000 0.6512
vn 0.0279 -0.0000 0.9996
vn -0.8187 -0.0000 0.5742
vn -0.0958 -0.0000 -0.9954
vn -0.8796 -0.0000 -0.4757
vn -0.3992 -0.0000 -0.9169
vn 0.2564 -0.0000 -0.9666
vt 0.000000 0.000000
vt 1.000000 0.000000
vt 0.000000 1.000000
vt 1.000000 1.000000
vt 0.000000 0.000000
vt 1.000000 0.000000
vt 0.000000 1.000000
vt 1.000000 1.000000
vt 0.000000 0.000000
vt 1.000000 0.000000
vt 0.000000 1.000000
vt 1.000000 1.000000
vt 0.000000 0.000000
vt 1.000000 0.000000
vt 0.000000 1.000000
vt 1.000000 1.000000
vt 0.000000 0.000000
vt 1.000000 0.000000
vt 0.000000 1.000000
vt 1.000000 1.000000
vt 0.000000 0.000000
vt 1.000000 0.000000
vt 0.000000 1.000000
vt 1.000000 1.000000
vt 0.000000 0.000000
vt 1.000000 0.000000
vt 0.000000 1.000000
vt 1.000000 1.000000
vt 0.000000 0.000000
vt 1.000000 0.000000
vt 0.000000 1.000000
vt 1.000000 1.000000
vt 0.000000 0.000000
vt 1.000000 0.000000
vt 0.000000 1.000000
vt 1.000000 1.000000
vt 0.000000 0.000000
vt 1.000000 0.000000
vt 0.000000 1.000000
vt 1.000000 1.000000
vt 0.000000 0.000000
vt 1.000000 0.000000
vt 0.000000 1.000000
vt 1.000000 1.000000
vt 0.000000 0.000000
vt 1.000000 0.000000
vt 0.000000 1.000000
vt 1.000000 1.000000
vt 0.000000 0.000000
vt 1.000000 0.000000
vt 0.000000 1.000000
vt 1.000000 1.000000
vt 0.000000 0.000000
vt 1.000000 0.000000
vt 0.000000 1.000000
vt 1.000000 1.000000
vt 0.000000 0.000000
vt 1.000000 0.000000
vt 0.000000 1.000000
vt 1.000000 1.000000
vt 0.000000 0.000000
vt 1.000000 0.000000
vt 0.000000 1.000000
vt 1.000000 1.000000
vt 0.000000 0.000000
vt 1.000000 0.000000
vt 0.000000 1.000000
vt 1.000000 1.000000
vt 0.000000 0.000000
vt 1.000000 0.000000
vt 0.000000 1.000000
vt 1.000000 1.000000
vt 0.000000 0.000000
vt 1.000000 0.000000
vt 0.000000 1.000000
vt 1.000000 1.000000
vt 0.000000 0.000000
vt 1.000000 0.000000
vt 0.000000 1.000000
vt 1.000000 1.000000
s 0
usemtl T_grass_01_A_M
f 1/1/1 2/2/1 4/4/1 3/3/1
f 5/5/2 6/6/2 8/8/2 7/7/2
f 9/9/3 10/10/3 12/12/3 11/11/3
f 13/13/4 14/14/4 16/16/4 15/15/4
f 17/17/5 18/18/5 20/20/5 19/19/5
f 21/21/6 22/22/6 24/24/6 23/23/6
f 25/25/7 26/26/7 28/28/7 27/27/7
f 29/29/8 30/30/8 32/32/8 31/31/8
f 33/33/9 34/34/9 36/36/9 35/35/9
f 37/37/10 38/38/10 40/40/10 39/39/10
f 41/41/11 42/42/11 44/44/11 43/43/11
f 45/45/12 46/46/12 48/48/12 47/47/12
f 49/49/13 50/50/13 52/52/13 51/51/13
f 53/53/14 54/54/14 56/56/14 55/55/14
f 57/57/15 58/58/15 60/60/15 59/59/15
f 61/61/16 62/62/16 64/64/16 63/63/16
f 65/65/17 66/66/17 68/68/17 67/67/17
f 69/69/17 70/70/17 72/72/17 71/71/17
f 73/73/18 74/74/18 76/76/18 75/75/18
f 77/77/18 78/78/18 80/80/18 79/79/18
